<svg id="visual" viewBox="0 0 1960 1040" width="1960" height="1040" xmlns="http://www.w3.org/2000/svg" xmlns:xlink="http://www.w3.org/1999/xlink" version="1.1"><path d="M0 74L65.3 79.2C130.7 84.3 261.3 94.7 392 112C522.7 129.3 653.3 153.7 784 138C914.7 122.3 1045.3 66.7 1176 51C1306.7 35.3 1437.3 59.7 1568 78.8C1698.7 98 1829.3 112 1894.7 119L1960 126L1960 0L1894.7 0C1829.3 0 1698.7 0 1568 0C1437.3 0 1306.7 0 1176 0C1045.3 0 914.7 0 784 0C653.3 0 522.7 0 392 0C261.3 0 130.7 0 65.3 0L0 0Z" fill="#ddb3ed"></path><path d="M0 323L65.3 338.7C130.7 354.3 261.3 385.7 392 418.7C522.7 451.7 653.3 486.3 784 484.7C914.7 483 1045.3 445 1176 415.5C1306.7 386 1437.3 365 1568 323.3C1698.7 281.7 1829.3 219.3 1894.7 188.2L1960 157L1960 124L1894.7 117C1829.3 110 1698.7 96 1568 76.8C1437.3 57.7 1306.7 33.3 1176 49C1045.3 64.7 914.7 120.3 784 136C653.3 151.7 522.7 127.3 392 110C261.3 92.7 130.7 82.3 65.3 77.2L0 72Z" fill="#d7a8ea"></path><path d="M0 625L65.3 612.8C130.7 600.7 261.3 576.3 392 595.3C522.7 614.3 653.3 676.7 784 678.5C914.7 680.3 1045.3 621.7 1176 569.7C1306.7 517.7 1437.3 472.3 1568 481C1698.7 489.7 1829.3 552.3 1894.7 583.7L1960 615L1960 155L1894.7 186.2C1829.3 217.3 1698.7 279.7 1568 321.3C1437.3 363 1306.7 384 1176 413.5C1045.3 443 914.7 481 784 482.7C653.3 484.3 522.7 449.7 392 416.7C261.3 383.7 130.7 352.3 65.3 336.7L0 321Z" fill="#d19ce8"></path><path d="M0 750L65.3 739.5C130.7 729 261.3 708 392 708C522.7 708 653.3 729 784 739.5C914.7 750 1045.3 750 1176 704.8C1306.7 659.7 1437.3 569.3 1568 562.3C1698.7 555.3 1829.3 631.7 1894.7 669.8L1960 708L1960 613L1894.7 581.7C1829.3 550.3 1698.7 487.7 1568 479C1437.3 470.3 1306.7 515.7 1176 567.7C1045.3 619.7 914.7 678.3 784 676.5C653.3 674.7 522.7 612.3 392 593.3C261.3 574.3 130.7 598.7 65.3 610.8L0 623Z" fill="#cb91e5"></path><path d="M0 781L65.3 777.5C130.7 774 261.3 767 392 784.3C522.7 801.7 653.3 843.3 784 857.2C914.7 871 1045.3 857 1176 841.3C1306.7 825.7 1437.3 808.3 1568 794.5C1698.7 780.7 1829.3 770.3 1894.7 765.2L1960 760L1960 706L1894.7 667.8C1829.3 629.7 1698.7 553.3 1568 560.3C1437.3 567.3 1306.7 657.7 1176 702.8C1045.3 748 914.7 748 784 737.5C653.3 727 522.7 706 392 706C261.3 706 130.7 727 65.3 737.5L0 748Z" fill="#c185dc"></path><path d="M0 885L65.3 874.7C130.7 864.3 261.3 843.7 392 850.7C522.7 857.7 653.3 892.3 784 916.5C914.7 940.7 1045.3 954.3 1176 942.2C1306.7 930 1437.3 892 1568 864.3C1698.7 836.7 1829.3 819.3 1894.7 810.7L1960 802L1960 758L1894.7 763.2C1829.3 768.3 1698.7 778.7 1568 792.5C1437.3 806.3 1306.7 823.7 1176 839.3C1045.3 855 914.7 869 784 855.2C653.3 841.3 522.7 799.7 392 782.3C261.3 765 130.7 772 65.3 775.5L0 779Z" fill="#b879d4"></path><path d="M0 1041L65.3 1041C130.7 1041 261.3 1041 392 1041C522.7 1041 653.3 1041 784 1041C914.7 1041 1045.3 1041 1176 1041C1306.7 1041 1437.3 1041 1568 1041C1698.7 1041 1829.3 1041 1894.7 1041L1960 1041L1960 800L1894.7 808.7C1829.3 817.3 1698.7 834.7 1568 862.3C1437.3 890 1306.7 928 1176 940.2C1045.3 952.3 914.7 938.7 784 914.5C653.3 890.3 522.7 855.7 392 848.7C261.3 841.7 130.7 862.3 65.3 872.7L0 883Z" fill="#ae6dcb"></path></svg>