<svg id="visual" viewBox="0 0 1960 840" width="1960" height="840" xmlns="http://www.w3.org/2000/svg" xmlns:xlink="http://www.w3.org/1999/xlink" version="1.1"><rect width="1960" height="840" fill="#66aeff"></rect><g><g transform="translate(191 707)"><path d="M0 -210.9L182.6 -105.4L182.6 105.4L0 210.9L-182.6 105.4L-182.6 -105.4Z" fill="#c3d0f9"></path></g><g transform="translate(1214 265)"><path d="M0 -210L181.9 -105L181.9 105L0 210L-181.9 105L-181.9 -105Z" fill="#c3d0f9"></path></g><g transform="translate(1732 825)"><path d="M0 -210L181.9 -105L181.9 105L0 210L-181.9 105L-181.9 -105Z" fill="#c3d0f9"></path></g><g transform="translate(1878 141)"><path d="M0 -210L181.9 -105L181.9 105L0 210L-181.9 105L-181.9 -105Z" fill="#c3d0f9"></path></g><g transform="translate(762 102)"><path d="M0 -210L181.9 -105L181.9 105L0 210L-181.9 105L-181.9 -105Z" fill="#c3d0f9"></path></g><g transform="translate(308 154)"><path d="M0 -210L181.9 -105L181.9 105L0 210L-181.9 105L-181.9 -105Z" fill="#c3d0f9"></path></g><g transform="translate(989 625)"><path d="M0 -210L181.9 -105L181.9 105L0 210L-181.9 105L-181.9 -105Z" fill="#c3d0f9"></path></g><g transform="translate(602 806)"><path d="M0 -210L181.9 -105L181.9 105L0 210L-181.9 105L-181.9 -105Z" fill="#c3d0f9"></path></g></g></svg>