<svg id="visual" viewBox="0 0 1960 1960" width="1960" height="1960" xmlns="http://www.w3.org/2000/svg" xmlns:xlink="http://www.w3.org/1999/xlink" version="1.1"><rect width="1960" height="1960" fill="#66aeff"></rect><g><g transform="translate(236 567)"><path d="M0 -298.8L233.6 -186.3L291.3 66.5L129.6 269.2L-129.6 269.2L-291.3 66.5L-233.6 -186.3Z" fill="#c3d0f9"></path></g><g transform="translate(914 1612)"><path d="M0 -264L206.4 -164.6L257.4 58.7L114.5 237.9L-114.5 237.9L-257.4 58.7L-206.4 -164.6Z" fill="#c3d0f9"></path></g><g transform="translate(352 1881)"><path d="M0 -274L214.2 -170.8L267.1 61L118.9 246.9L-118.9 246.9L-267.1 61L-214.2 -170.8Z" fill="#c3d0f9"></path></g><g transform="translate(1342 613)"><path d="M0 -267L208.7 -166.5L260.3 59.4L115.8 240.6L-115.8 240.6L-260.3 59.4L-208.7 -166.5Z" fill="#c3d0f9"></path></g><g transform="translate(785 54)"><path d="M0 -257L200.9 -160.2L250.6 57.2L111.5 231.5L-111.5 231.5L-250.6 57.2L-200.9 -160.2Z" fill="#c3d0f9"></path></g><g transform="translate(1923 811)"><path d="M0 -279L218.1 -174L272 62.1L121.1 251.4L-121.1 251.4L-272 62.1L-218.1 -174Z" fill="#c3d0f9"></path></g><g transform="translate(1485 1352)"><path d="M0 -257L200.9 -160.2L250.6 57.2L111.5 231.5L-111.5 231.5L-250.6 57.2L-200.9 -160.2Z" fill="#c3d0f9"></path></g><g transform="translate(1908 123)"><path d="M0 -241L188.4 -150.3L235 53.6L104.6 217.1L-104.6 217.1L-235 53.6L-188.4 -150.3Z" fill="#c3d0f9"></path></g></g></svg>